<svg width="250" height="250" viewBox="0 0 250 250" fill="none" xmlns="http://www.w3.org/2000/svg">
<style>
path {
    color: #0a0a0a;
}
@media (prefers-color-scheme: dark) {
    path {
        color: #fafafa;
    }
}
</style>
<path d="M100.111 117.568C99.8874 118.016 99.4115 118.968 98.6836 120.424C98.0117 121.824 97.1159 123.447 95.9961 125.295C94.9323 127.143 93.6725 129.074 92.2168 131.09C90.7611 133.105 89.1374 134.953 87.3457 136.633C85.554 138.312 83.6224 139.712 81.5508 140.832C79.4792 141.896 77.2956 142.428 75 142.428C71.7526 142.428 69.0091 141.392 66.7695 139.32C64.5859 137.249 62.9902 134.645 61.9824 131.51C60.0788 134.701 57.8112 137.249 55.1797 139.152C52.5482 141 49.9167 141.924 47.2852 141.924C45.2135 141.924 43.3379 141.56 41.6582 140.832C39.9785 140.048 38.5508 138.984 37.375 137.641C36.1992 136.241 35.2754 134.617 34.6035 132.77C33.9876 130.922 33.6797 128.906 33.6797 126.723C33.6797 122.355 34.4076 118.52 35.8633 115.217C37.375 111.857 39.2786 109.058 41.5742 106.818C43.8698 104.579 46.3893 102.899 49.1328 101.779C51.9323 100.66 54.6198 100.1 57.1953 100.1C58.931 100.1 60.5267 100.352 61.9824 100.855C63.4382 101.303 64.6699 101.807 65.6777 102.367C66.7415 102.927 67.5534 103.459 68.1133 103.963C68.6732 104.411 68.9811 104.663 69.0371 104.719C69.653 105.447 69.9609 106.202 69.9609 106.986C69.9609 107.826 69.653 108.582 69.0371 109.254C68.4212 109.87 67.6934 110.178 66.8535 110.178C65.9577 110.178 65.2018 109.87 64.5859 109.254C64.474 109.142 64.222 108.946 63.8301 108.666C63.4382 108.33 62.9062 107.994 62.2344 107.658C61.5625 107.322 60.7507 107.042 59.7988 106.818C58.903 106.538 57.8672 106.398 56.6914 106.398C54.9557 106.398 53.1081 106.79 51.1484 107.574C49.1888 108.358 47.3971 109.59 45.7734 111.27C44.1497 112.893 42.778 114.965 41.6582 117.484C40.5944 119.948 40.0625 122.887 40.0625 126.303C40.0625 127.367 40.1745 128.458 40.3984 129.578C40.6224 130.642 41.0143 131.622 41.5742 132.518C42.1341 133.413 42.89 134.141 43.8418 134.701C44.7936 135.261 45.9694 135.541 47.3691 135.541C48.377 135.541 49.5247 135.205 50.8125 134.533C52.1562 133.861 53.416 132.826 54.5918 131.426C55.8236 130.026 56.9154 128.262 57.8672 126.135C58.875 124.007 59.5749 121.488 59.9668 118.576C60.0788 117.792 60.4427 117.148 61.0586 116.645C61.6745 116.085 62.4023 115.805 63.2422 115.805C64.026 115.805 64.6979 116.113 65.2578 116.729C65.8737 117.344 66.2096 118.044 66.2656 118.828C66.3216 119.892 66.4336 121.404 66.6016 123.363C66.7695 125.267 67.1335 127.171 67.6934 129.074C68.3092 130.978 69.2051 132.63 70.3809 134.029C71.5566 135.429 73.1803 136.129 75.252 136.129C76.5957 136.129 77.9115 135.765 79.1992 135.037C80.543 134.309 81.8307 133.357 83.0625 132.182C84.3503 130.95 85.554 129.578 86.6738 128.066C87.8496 126.499 88.9134 124.931 89.8652 123.363C90.8171 121.796 91.6569 120.284 92.3848 118.828C93.1126 117.372 93.7285 116.113 94.2324 115.049C94.5124 114.433 94.9043 113.957 95.4082 113.621C95.9681 113.285 96.556 113.117 97.1719 113.117C98.1237 113.117 98.8796 113.481 99.4395 114.209C100.055 114.881 100.363 115.609 100.363 116.393C100.363 116.785 100.279 117.176 100.111 117.568ZM124.719 149.23C135.245 135.513 142.551 124.119 146.639 115.049C146.919 114.433 147.283 113.985 147.73 113.705C148.234 113.369 148.794 113.201 149.41 113.201C150.362 113.201 151.146 113.537 151.762 114.209C152.378 114.825 152.686 115.553 152.686 116.393C152.686 116.785 152.602 117.176 152.434 117.568C149.97 123.167 146.471 129.41 141.936 136.297C137.4 143.184 131.661 150.966 124.719 159.645C124.719 163.172 124.747 166.699 124.803 170.227C124.859 173.754 124.887 177.617 124.887 181.816C124.887 186.016 124.775 190.159 124.551 194.246C124.383 198.389 124.047 202.309 123.543 206.004C123.039 209.755 122.339 213.199 121.443 216.334C120.604 219.525 119.484 222.269 118.084 224.564C116.74 226.916 115.089 228.736 113.129 230.023C111.225 231.367 108.958 232.039 106.326 232.039C102.575 232.039 99.6914 230.611 97.6758 227.756C95.6602 224.9 94.6523 220.841 94.6523 215.578C94.6523 212.779 94.9043 209.727 95.4082 206.424C95.9681 203.176 96.752 199.817 97.7598 196.346C98.7676 192.874 99.9714 189.347 101.371 185.764C102.827 182.236 104.423 178.793 106.158 175.434C107.894 172.074 109.77 168.855 111.785 165.775C113.857 162.696 116.04 159.896 118.336 157.377C118.392 153.458 118.42 149.566 118.42 145.703C118.476 141.84 118.56 138.285 118.672 135.037C116.992 137.165 114.977 138.844 112.625 140.076C110.329 141.308 108.034 141.924 105.738 141.924C103.779 141.924 101.987 141.56 100.363 140.832C98.7956 140.048 97.4518 138.984 96.332 137.641C95.2122 136.241 94.3444 134.617 93.7285 132.77C93.1126 130.922 92.8047 128.906 92.8047 126.723C92.8047 122.355 93.5326 118.52 94.9883 115.217C96.5 111.857 98.4036 109.058 100.699 106.818C102.995 104.579 105.514 102.899 108.258 101.779C111.057 100.66 113.745 100.1 116.32 100.1C118.056 100.1 119.652 100.324 121.107 100.771C122.563 101.219 123.795 101.723 124.803 102.283C125.867 102.843 126.678 103.375 127.238 103.879C127.798 104.383 128.106 104.663 128.162 104.719C128.778 105.391 129.086 106.146 129.086 106.986C129.086 107.826 128.778 108.582 128.162 109.254C127.546 109.87 126.818 110.178 125.979 110.178C125.195 110.178 124.439 109.87 123.711 109.254C123.487 109.086 123.179 108.862 122.787 108.582C122.451 108.246 121.975 107.91 121.359 107.574C120.799 107.238 120.1 106.958 119.26 106.734C118.476 106.51 117.524 106.398 116.404 106.398C114.725 106.398 112.877 106.79 110.861 107.574C108.846 108.302 106.97 109.478 105.234 111.102C103.499 112.725 102.043 114.825 100.867 117.4C99.6914 119.92 99.1035 122.971 99.1035 126.555C99.1035 129.242 99.6914 131.426 100.867 133.105C102.043 134.729 103.863 135.541 106.326 135.541C107.502 135.541 108.734 135.205 110.021 134.533C111.365 133.861 112.653 132.826 113.885 131.426C115.117 130.026 116.18 128.262 117.076 126.135C118.028 124.007 118.7 121.488 119.092 118.576C119.204 117.792 119.568 117.148 120.184 116.645C120.799 116.085 121.527 115.805 122.367 115.805C123.319 115.805 124.047 116.141 124.551 116.812C125.111 117.484 125.391 118.24 125.391 119.08C125.391 119.136 125.363 120.004 125.307 121.684C125.251 123.307 125.195 125.491 125.139 128.234C125.083 130.978 124.999 134.169 124.887 137.809C124.831 141.392 124.775 145.199 124.719 149.23ZM118.336 167.623C115.704 171.262 113.325 175.21 111.197 179.465C109.07 183.776 107.25 188.115 105.738 192.482C104.227 196.85 103.051 201.077 102.211 205.164C101.427 209.307 101.035 213.003 101.035 216.25C101.035 218.322 101.203 219.973 101.539 221.205C101.931 222.437 102.379 223.389 102.883 224.061C103.443 224.732 104.031 225.18 104.646 225.404C105.318 225.628 105.934 225.74 106.494 225.74C108.23 225.74 109.742 225.04 111.029 223.641C112.317 222.241 113.409 220.365 114.305 218.014C115.201 215.718 115.928 213.059 116.488 210.035C117.048 207.012 117.468 203.876 117.748 200.629C118.028 197.438 118.224 194.246 118.336 191.055C118.448 187.863 118.504 184.924 118.504 182.236C118.504 179.829 118.504 177.421 118.504 175.014C118.504 172.606 118.448 170.143 118.336 167.623ZM153.357 133.861C154.253 131.958 155.289 129.914 156.465 127.73C157.641 125.491 158.9 123.223 160.244 120.928C161.588 118.576 163.016 116.253 164.527 113.957C166.039 111.661 167.607 109.506 169.23 107.49C170.854 105.531 172.478 104.131 174.102 103.291C175.781 102.395 177.349 101.947 178.805 101.947C180.26 101.947 181.52 102.255 182.584 102.871C183.704 103.431 184.6 104.215 185.271 105.223C185.999 106.23 186.531 107.406 186.867 108.75C187.259 110.094 187.455 111.549 187.455 113.117C187.455 114.405 187.315 116.141 187.035 118.324C186.811 120.452 186.699 122.691 186.699 125.043C186.699 126.387 186.755 127.73 186.867 129.074C187.035 130.362 187.287 131.538 187.623 132.602C188.015 133.609 188.575 134.449 189.303 135.121C190.031 135.737 190.982 136.045 192.158 136.045C193.502 136.045 194.846 135.681 196.189 134.953C197.533 134.169 198.849 133.161 200.137 131.93C201.424 130.642 202.656 129.242 203.832 127.73C205.008 126.163 206.072 124.623 207.023 123.111C207.975 121.544 208.815 120.06 209.543 118.66C210.271 117.204 210.859 116.001 211.307 115.049C211.867 113.761 212.846 113.117 214.246 113.117C215.198 113.117 215.954 113.453 216.514 114.125C217.074 114.797 217.354 115.525 217.354 116.309C217.354 116.757 217.27 117.176 217.102 117.568C216.878 118.016 216.43 118.94 215.758 120.34C215.142 121.74 214.274 123.363 213.154 125.211C212.09 127.059 210.831 128.99 209.375 131.006C207.919 133.021 206.296 134.897 204.504 136.633C202.768 138.312 200.865 139.712 198.793 140.832C196.777 141.896 194.65 142.428 192.41 142.428C189.835 142.428 187.763 141.896 186.195 140.832C184.628 139.712 183.396 138.312 182.5 136.633C181.66 134.953 181.072 133.077 180.736 131.006C180.456 128.934 180.316 126.919 180.316 124.959C180.316 123.951 180.344 122.887 180.4 121.768C180.512 120.592 180.624 119.444 180.736 118.324C180.848 117.204 180.932 116.169 180.988 115.217C181.1 114.209 181.156 113.369 181.156 112.697C181.156 110.962 180.904 109.786 180.4 109.17C179.952 108.554 179.421 108.246 178.805 108.246C177.909 108.246 176.873 108.778 175.697 109.842C174.577 110.85 173.374 112.193 172.086 113.873C170.854 115.553 169.594 117.456 168.307 119.584C167.075 121.656 165.871 123.727 164.695 125.799C163.52 127.87 162.456 129.858 161.504 131.762C160.552 133.609 159.768 135.149 159.152 136.381C157.977 138.732 156.773 140.3 155.541 141.084C154.365 141.924 153.301 142.344 152.35 142.344C150.614 142.344 149.27 141.672 148.318 140.328C147.423 138.928 146.975 137.249 146.975 135.289V129.998C146.975 119.416 146.975 109.338 146.975 99.7637C147.031 90.1335 147.171 81.2031 147.395 72.9727C147.674 64.6862 148.094 57.2116 148.654 50.5488C149.27 43.8301 150.166 38.1191 151.342 33.416C152.518 28.6569 154.001 24.9896 155.793 22.4141C157.641 19.8385 159.936 18.5508 162.68 18.5508C165.031 18.5508 167.019 19.1947 168.643 20.4824C170.266 21.7702 171.582 23.5339 172.59 25.7734C173.598 27.957 174.326 30.5326 174.773 33.5C175.221 36.4115 175.445 39.4909 175.445 42.7383C175.445 49.3451 174.829 55.8398 173.598 62.2227C172.422 68.5495 170.826 74.7363 168.811 80.7832C166.795 86.8301 164.443 92.737 161.756 98.5039C159.068 104.215 156.241 109.786 153.273 115.217C153.273 116.225 153.273 117.428 153.273 118.828C153.273 120.228 153.273 121.628 153.273 123.027C153.273 124.427 153.273 125.743 153.273 126.975C153.273 128.206 153.273 129.186 153.273 129.914L153.357 133.861ZM153.357 102.871C155.709 97.7201 157.837 92.709 159.74 87.8379C161.7 82.9108 163.352 78.0117 164.695 73.1406C166.095 68.2695 167.187 63.3424 167.971 58.3594C168.755 53.3203 169.146 48.0853 169.146 42.6543C169.146 41.7585 169.09 40.3307 168.979 38.3711C168.923 36.4115 168.671 34.4238 168.223 32.4082C167.831 30.3926 167.187 28.6289 166.291 27.1172C165.451 25.6055 164.247 24.8496 162.68 24.8496C161.448 24.8496 160.384 25.6895 159.488 27.3691C158.592 28.9928 157.809 31.2324 157.137 34.0879C156.465 36.8874 155.905 40.1628 155.457 43.9141C155.009 47.6654 154.645 51.6406 154.365 55.8398C154.085 60.0391 153.861 64.3503 153.693 68.7734C153.581 73.1966 153.497 77.5078 153.441 81.707C153.385 85.8503 153.357 89.7415 153.357 93.3809C153.357 97.0202 153.357 100.184 153.357 102.871Z" fill="currentColor"/>
</svg>
