<svg xmlns="http://www.w3.org/2000/svg" width="128" height="144" viewBox="0 0 128 144" fill="currentColor">
<path d="M50.0156 75.9219C49.8906 76.1719 49.625 76.7031 49.2188 77.5156C48.8438 78.2969 48.3438 79.2031 47.7188 80.2344C47.125 81.2656 46.4219 82.3438 45.6094 83.4688C44.7969 84.5938 43.8906 85.625 42.8906 86.5625C41.8906 87.5 40.8125 88.2812 39.6562 88.9062C38.5 89.5 37.2812 89.7969 36 89.7969C34.1875 89.7969 32.6562 89.2188 31.4062 88.0625C30.1875 86.9062 29.2969 85.4531 28.7344 83.7031C27.6719 85.4844 26.4062 86.9062 24.9375 87.9688C23.4688 89 22 89.5156 20.5312 89.5156C19.375 89.5156 18.3281 89.3125 17.3906 88.9062C16.4531 88.4688 15.6562 87.875 15 87.125C14.3438 86.3438 13.8281 85.4375 13.4531 84.4062C13.1094 83.375 12.9375 82.25 12.9375 81.0312C12.9375 78.5938 13.3438 76.4531 14.1562 74.6094C15 72.7344 16.0625 71.1719 17.3438 69.9219C18.625 68.6719 20.0312 67.7344 21.5625 67.1094C23.125 66.4844 24.625 66.1719 26.0625 66.1719C27.0312 66.1719 27.9219 66.3125 28.7344 66.5938C29.5469 66.8438 30.2344 67.125 30.7969 67.4375C31.3906 67.75 31.8438 68.0469 32.1562 68.3281C32.4688 68.5781 32.6406 68.7188 32.6719 68.75C33.0156 69.1562 33.1875 69.5781 33.1875 70.0156C33.1875 70.4844 33.0156 70.9062 32.6719 71.2812C32.3281 71.625 31.9219 71.7969 31.4531 71.7969C30.9531 71.7969 30.5312 71.625 30.1875 71.2812C30.125 71.2188 29.9844 71.1094 29.7656 70.9531C29.5469 70.7656 29.25 70.5781 28.875 70.3906C28.5 70.2031 28.0469 70.0469 27.5156 69.9219C27.0156 69.7656 26.4375 69.6875 25.7812 69.6875C24.8125 69.6875 23.7812 69.9062 22.6875 70.3438C21.5938 70.7812 20.5938 71.4688 19.6875 72.4062C18.7812 73.3125 18.0156 74.4688 17.3906 75.875C16.7969 77.25 16.5 78.8906 16.5 80.7969C16.5 81.3906 16.5625 82 16.6875 82.625C16.8125 83.2188 17.0312 83.7656 17.3438 84.2656C17.6562 84.7656 18.0781 85.1719 18.6094 85.4844C19.1406 85.7969 19.7969 85.9531 20.5781 85.9531C21.1406 85.9531 21.7812 85.7656 22.5 85.3906C23.25 85.0156 23.9531 84.4375 24.6094 83.6562C25.2969 82.875 25.9062 81.8906 26.4375 80.7031C27 79.5156 27.3906 78.1094 27.6094 76.4844C27.6719 76.0469 27.875 75.6875 28.2188 75.4062C28.5625 75.0938 28.9688 74.9375 29.4375 74.9375C29.875 74.9375 30.25 75.1094 30.5625 75.4531C30.9062 75.7969 31.0938 76.1875 31.125 76.625C31.1562 77.2188 31.2188 78.0625 31.3125 79.1562C31.4062 80.2188 31.6094 81.2812 31.9219 82.3438C32.2656 83.4062 32.7656 84.3281 33.4219 85.1094C34.0781 85.8906 34.9844 86.2812 36.1406 86.2812C36.8906 86.2812 37.625 86.0781 38.3438 85.6719C39.0938 85.2656 39.8125 84.7344 40.5 84.0781C41.2188 83.3906 41.8906 82.625 42.5156 81.7812C43.1719 80.9062 43.7656 80.0312 44.2969 79.1562C44.8281 78.2812 45.2969 77.4375 45.7031 76.625C46.1094 75.8125 46.4531 75.1094 46.7344 74.5156C46.8906 74.1719 47.1094 73.9062 47.3906 73.7188C47.7031 73.5312 48.0312 73.4375 48.375 73.4375C48.9062 73.4375 49.3281 73.6406 49.6406 74.0469C49.9844 74.4219 50.1562 74.8281 50.1562 75.2656C50.1562 75.4844 50.1094 75.7031 50.0156 75.9219ZM63.75 93.5938C69.625 85.9375 73.7031 79.5781 75.9844 74.5156C76.1406 74.1719 76.3438 73.9219 76.5938 73.7656C76.875 73.5781 77.1875 73.4844 77.5312 73.4844C78.0625 73.4844 78.5 73.6719 78.8438 74.0469C79.1875 74.3906 79.3594 74.7969 79.3594 75.2656C79.3594 75.4844 79.3125 75.7031 79.2188 75.9219C77.8438 79.0469 75.8906 82.5312 73.3594 86.375C70.8281 90.2188 67.625 94.5625 63.75 99.4062C63.75 101.375 63.7656 103.344 63.7969 105.312C63.8281 107.281 63.8438 109.438 63.8438 111.781C63.8438 114.125 63.7812 116.438 63.6562 118.719C63.5625 121.031 63.375 123.219 63.0938 125.281C62.8125 127.375 62.4219 129.297 61.9219 131.047C61.4531 132.828 60.8281 134.359 60.0469 135.641C59.2969 136.953 58.375 137.969 57.2812 138.688C56.2188 139.438 54.9531 139.812 53.4844 139.812C51.3906 139.812 49.7812 139.016 48.6562 137.422C47.5312 135.828 46.9688 133.562 46.9688 130.625C46.9688 129.062 47.1094 127.359 47.3906 125.516C47.7031 123.703 48.1406 121.828 48.7031 119.891C49.2656 117.953 49.9375 115.984 50.7188 113.984C51.5312 112.016 52.4219 110.094 53.3906 108.219C54.3594 106.344 55.4062 104.547 56.5312 102.828C57.6875 101.109 58.9062 99.5469 60.1875 98.1406C60.2188 95.9531 60.2344 93.7812 60.2344 91.625C60.2656 89.4688 60.3125 87.4844 60.375 85.6719C59.4375 86.8594 58.3125 87.7969 57 88.4844C55.7188 89.1719 54.4375 89.5156 53.1562 89.5156C52.0625 89.5156 51.0625 89.3125 50.1562 88.9062C49.2812 88.4688 48.5312 87.875 47.9062 87.125C47.2812 86.3438 46.7969 85.4375 46.4531 84.4062C46.1094 83.375 45.9375 82.25 45.9375 81.0312C45.9375 78.5938 46.3438 76.4531 47.1562 74.6094C48 72.7344 49.0625 71.1719 50.3438 69.9219C51.625 68.6719 53.0312 67.7344 54.5625 67.1094C56.125 66.4844 57.625 66.1719 59.0625 66.1719C60.0312 66.1719 60.9219 66.2969 61.7344 66.5469C62.5469 66.7969 63.2344 67.0781 63.7969 67.3906C64.3906 67.7031 64.8438 68 65.1562 68.2812C65.4688 68.5625 65.6406 68.7188 65.6719 68.75C66.0156 69.125 66.1875 69.5469 66.1875 70.0156C66.1875 70.4844 66.0156 70.9062 65.6719 71.2812C65.3281 71.625 64.9219 71.7969 64.4531 71.7969C64.0156 71.7969 63.5938 71.625 63.1875 71.2812C63.0625 71.1875 62.8906 71.0625 62.6719 70.9062C62.4844 70.7188 62.2188 70.5312 61.875 70.3438C61.5625 70.1562 61.1719 70 60.7031 69.875C60.2656 69.75 59.7344 69.6875 59.1094 69.6875C58.1719 69.6875 57.1406 69.9062 56.0156 70.3438C54.8906 70.75 53.8438 71.4062 52.875 72.3125C51.9062 73.2188 51.0938 74.3906 50.4375 75.8281C49.7812 77.2344 49.4531 78.9375 49.4531 80.9375C49.4531 82.4375 49.7812 83.6562 50.4375 84.5938C51.0938 85.5 52.1094 85.9531 53.4844 85.9531C54.1406 85.9531 54.8281 85.7656 55.5469 85.3906C56.2969 85.0156 57.0156 84.4375 57.7031 83.6562C58.3906 82.875 58.9844 81.8906 59.4844 80.7031C60.0156 79.5156 60.3906 78.1094 60.6094 76.4844C60.6719 76.0469 60.875 75.6875 61.2188 75.4062C61.5625 75.0938 61.9688 74.9375 62.4375 74.9375C62.9688 74.9375 63.375 75.125 63.6562 75.5C63.9688 75.875 64.125 76.2969 64.125 76.7656C64.125 76.7969 64.1094 77.2812 64.0781 78.2188C64.0469 79.125 64.0156 80.3438 63.9844 81.875C63.9531 83.4062 63.9062 85.1875 63.8438 87.2188C63.8125 89.2188 63.7812 91.3438 63.75 93.5938ZM60.1875 103.859C58.7188 105.891 57.3906 108.094 56.2031 110.469C55.0156 112.875 54 115.297 53.1562 117.734C52.3125 120.172 51.6562 122.531 51.1875 124.812C50.75 127.125 50.5312 129.188 50.5312 131C50.5312 132.156 50.625 133.078 50.8125 133.766C51.0312 134.453 51.2812 134.984 51.5625 135.359C51.875 135.734 52.2031 135.984 52.5469 136.109C52.9219 136.234 53.2656 136.297 53.5781 136.297C54.5469 136.297 55.3906 135.906 56.1094 135.125C56.8281 134.344 57.4375 133.297 57.9375 131.984C58.4375 130.703 58.8438 129.219 59.1562 127.531C59.4688 125.844 59.7031 124.094 59.8594 122.281C60.0156 120.5 60.125 118.719 60.1875 116.938C60.25 115.156 60.2812 113.516 60.2812 112.016C60.2812 110.672 60.2812 109.328 60.2812 107.984C60.2812 106.641 60.25 105.266 60.1875 103.859ZM79.7344 85.0156C80.2344 83.9531 80.8125 82.8125 81.4688 81.5938C82.125 80.3438 82.8281 79.0781 83.5781 77.7969C84.3281 76.4844 85.125 75.1875 85.9688 73.9062C86.8125 72.625 87.6875 71.4219 88.5938 70.2969C89.5 69.2031 90.4062 68.4219 91.3125 67.9531C92.25 67.4531 93.125 67.2031 93.9375 67.2031C94.75 67.2031 95.4531 67.375 96.0469 67.7188C96.6719 68.0312 97.1719 68.4688 97.5469 69.0312C97.9531 69.5938 98.25 70.25 98.4375 71C98.6562 71.75 98.7656 72.5625 98.7656 73.4375C98.7656 74.1562 98.6875 75.125 98.5312 76.3438C98.4062 77.5312 98.3438 78.7812 98.3438 80.0938C98.3438 80.8438 98.375 81.5938 98.4375 82.3438C98.5312 83.0625 98.6719 83.7188 98.8594 84.3125C99.0781 84.875 99.3906 85.3438 99.7969 85.7188C100.203 86.0625 100.734 86.2344 101.391 86.2344C102.141 86.2344 102.891 86.0312 103.641 85.625C104.391 85.1875 105.125 84.625 105.844 83.9375C106.562 83.2188 107.25 82.4375 107.906 81.5938C108.562 80.7188 109.156 79.8594 109.688 79.0156C110.219 78.1406 110.688 77.3125 111.094 76.5312C111.5 75.7188 111.828 75.0469 112.078 74.5156C112.391 73.7969 112.938 73.4375 113.719 73.4375C114.25 73.4375 114.672 73.625 114.984 74C115.297 74.375 115.453 74.7812 115.453 75.2188C115.453 75.4688 115.406 75.7031 115.312 75.9219C115.188 76.1719 114.938 76.6875 114.562 77.4688C114.219 78.25 113.734 79.1562 113.109 80.1875C112.516 81.2188 111.812 82.2969 111 83.4219C110.188 84.5469 109.281 85.5938 108.281 86.5625C107.312 87.5 106.25 88.2812 105.094 88.9062C103.969 89.5 102.781 89.7969 101.531 89.7969C100.094 89.7969 98.9375 89.5 98.0625 88.9062C97.1875 88.2812 96.5 87.5 96 86.5625C95.5312 85.625 95.2031 84.5781 95.0156 83.4219C94.8594 82.2656 94.7812 81.1406 94.7812 80.0469C94.7812 79.4844 94.7969 78.8906 94.8281 78.2656C94.8906 77.6094 94.9531 76.9688 95.0156 76.3438C95.0781 75.7188 95.125 75.1406 95.1562 74.6094C95.2188 74.0469 95.25 73.5781 95.25 73.2031C95.25 72.2344 95.1094 71.5781 94.8281 71.2344C94.5781 70.8906 94.2812 70.7188 93.9375 70.7188C93.4375 70.7188 92.8594 71.0156 92.2031 71.6094C91.5781 72.1719 90.9062 72.9219 90.1875 73.8594C89.5 74.7969 88.7969 75.8594 88.0781 77.0469C87.3906 78.2031 86.7188 79.3594 86.0625 80.5156C85.4062 81.6719 84.8125 82.7812 84.2812 83.8438C83.75 84.875 83.3125 85.7344 82.9688 86.4219C82.3125 87.7344 81.6406 88.6094 80.9531 89.0469C80.2969 89.5156 79.7031 89.75 79.1719 89.75C78.2031 89.75 77.4531 89.375 76.9219 88.625C76.4219 87.8438 76.1719 86.9062 76.1719 85.8125V82.8594C76.1719 76.9531 76.1719 71.3281 76.1719 65.9844C76.2031 60.6094 76.2812 55.625 76.4062 51.0312C76.5625 46.4062 76.7969 42.2344 77.1094 38.5156C77.4531 34.7656 77.9531 31.5781 78.6094 28.9531C79.2656 26.2969 80.0938 24.25 81.0938 22.8125C82.125 21.375 83.4062 20.6562 84.9375 20.6562C86.25 20.6562 87.3594 21.0156 88.2656 21.7344C89.1719 22.4531 89.9062 23.4375 90.4688 24.6875C91.0312 25.9062 91.4375 27.3438 91.6875 29C91.9375 30.625 92.0625 32.3438 92.0625 34.1562C92.0625 37.8438 91.7188 41.4688 91.0312 45.0312C90.375 48.5625 89.4844 52.0156 88.3594 55.3906C87.2344 58.7656 85.9219 62.0625 84.4219 65.2812C82.9219 68.4688 81.3438 71.5781 79.6875 74.6094C79.6875 75.1719 79.6875 75.8438 79.6875 76.625C79.6875 77.4062 79.6875 78.1875 79.6875 78.9688C79.6875 79.75 79.6875 80.4844 79.6875 81.1719C79.6875 81.8594 79.6875 82.4062 79.6875 82.8125L79.7344 85.0156ZM79.7344 67.7188C81.0469 64.8438 82.2344 62.0469 83.2969 59.3281C84.3906 56.5781 85.3125 53.8438 86.0625 51.125C86.8438 48.4062 87.4531 45.6562 87.8906 42.875C88.3281 40.0625 88.5469 37.1406 88.5469 34.1094C88.5469 33.6094 88.5156 32.8125 88.4531 31.7188C88.4219 30.625 88.2812 29.5156 88.0312 28.3906C87.8125 27.2656 87.4531 26.2812 86.9531 25.4375C86.4844 24.5938 85.8125 24.1719 84.9375 24.1719C84.25 24.1719 83.6562 24.6406 83.1562 25.5781C82.6562 26.4844 82.2188 27.7344 81.8438 29.3281C81.4688 30.8906 81.1562 32.7188 80.9062 34.8125C80.6562 36.9062 80.4531 39.125 80.2969 41.4688C80.1406 43.8125 80.0156 46.2188 79.9219 48.6875C79.8594 51.1562 79.8125 53.5625 79.7812 55.9062C79.75 58.2188 79.7344 60.3906 79.7344 62.4219C79.7344 64.4531 79.7344 66.2188 79.7344 67.7188Z" fill="currentColor"/>
</svg>